<?xml version="1.0" encoding="utf-8"?>
<svg version="1.1" xmlns:xlink="http://www.w3.org/1999/xlink" width="460px" height="54px" xmlns="http://www.w3.org/2000/svg">
  <defs>
    <filter x="547px" y="70px" width="460px" height="54px" filterUnits="userSpaceOnUse" id="filter132">
      <feOffset dx="2" dy="2" in="SourceAlpha" result="shadowOffsetInner" />
      <feGaussianBlur stdDeviation="2.5" in="shadowOffsetInner" result="shadowGaussian" />
      <feComposite in2="shadowGaussian" operator="atop" in="SourceAlpha" result="shadowComposite" />
      <feColorMatrix type="matrix" values="0 0 0 0 1  0 0 0 0 0.8  0 0 0 0 1  0 0 0 0.2 0  " in="shadowComposite" />
    </filter>
    <g id="widget133">
      <path d="M 551 75  A 1 1 0 0 1 552 74 L 998 74  A 1 1 0 0 1 999 75 L 999 115  A 1 1 0 0 1 998 116 L 552 116  A 1 1 0 0 1 551 115 L 551 75  Z " fill-rule="nonzero" fill="#f2f2f2" stroke="none" fill-opacity="0.309803921568627" />
      <path d="M 550.5 75  A 1.5 1.5 0 0 1 552 73.5 L 998 73.5  A 1.5 1.5 0 0 1 999.5 75 L 999.5 115  A 1.5 1.5 0 0 1 998 116.5 L 552 116.5  A 1.5 1.5 0 0 1 550.5 115 L 550.5 75  Z " stroke-width="1" stroke="#c9c9c9" fill="none" stroke-opacity="0.4" />
    </g>
  </defs>
  <g transform="matrix(1 0 0 1 -547 -70 )">
    <use xlink:href="#widget133" filter="url(#filter132)" />
    <use xlink:href="#widget133" />
  </g>
</svg>