<?xml version="1.0" encoding="utf-8"?>
<svg version="1.1" xmlns:xlink="http://www.w3.org/1999/xlink" width="460px" height="140px" xmlns="http://www.w3.org/2000/svg">
  <defs>
    <filter x="972px" y="64px" width="460px" height="140px" filterUnits="userSpaceOnUse" id="filter147">
      <feOffset dx="2" dy="2" in="SourceAlpha" result="shadowOffsetInner" />
      <feGaussianBlur stdDeviation="2.5" in="shadowOffsetInner" result="shadowGaussian" />
      <feComposite in2="shadowGaussian" operator="atop" in="SourceAlpha" result="shadowComposite" />
      <feColorMatrix type="matrix" values="0 0 0 0 1  0 0 0 0 0.8  0 0 0 0 1  0 0 0 0.2 0  " in="shadowComposite" />
    </filter>
    <g id="widget148">
      <path d="M 976 69  A 1 1 0 0 1 977 68 L 1423 68  A 1 1 0 0 1 1424 69 L 1424 195  A 1 1 0 0 1 1423 196 L 977 196  A 1 1 0 0 1 976 195 L 976 69  Z " fill-rule="nonzero" fill="#f2f2f2" stroke="none" fill-opacity="0.309803921568627" />
      <path d="M 975.5 69  A 1.5 1.5 0 0 1 977 67.5 L 1423 67.5  A 1.5 1.5 0 0 1 1424.5 69 L 1424.5 195  A 1.5 1.5 0 0 1 1423 196.5 L 977 196.5  A 1.5 1.5 0 0 1 975.5 195 L 975.5 69  Z " stroke-width="1" stroke="#c9c9c9" fill="none" stroke-opacity="0.4" />
    </g>
  </defs>
  <g transform="matrix(1 0 0 1 -972 -64 )">
    <use xlink:href="#widget148" filter="url(#filter147)" />
    <use xlink:href="#widget148" />
  </g>
</svg>