<?xml version="1.0" encoding="utf-8"?>
<svg version="1.1" xmlns:xlink="http://www.w3.org/1999/xlink" width="460px" height="74px" xmlns="http://www.w3.org/2000/svg">
  <defs>
    <filter x="972px" y="210px" width="460px" height="74px" filterUnits="userSpaceOnUse" id="filter149">
      <feOffset dx="2" dy="2" in="SourceAlpha" result="shadowOffsetInner" />
      <feGaussianBlur stdDeviation="2.5" in="shadowOffsetInner" result="shadowGaussian" />
      <feComposite in2="shadowGaussian" operator="atop" in="SourceAlpha" result="shadowComposite" />
      <feColorMatrix type="matrix" values="0 0 0 0 1  0 0 0 0 0.8  0 0 0 0 1  0 0 0 0.2 0  " in="shadowComposite" />
    </filter>
    <g id="widget150">
      <path d="M 976 215  A 1 1 0 0 1 977 214 L 1423 214  A 1 1 0 0 1 1424 215 L 1424 275  A 1 1 0 0 1 1423 276 L 977 276  A 1 1 0 0 1 976 275 L 976 215  Z " fill-rule="nonzero" fill="#f2f2f2" stroke="none" fill-opacity="0.309803921568627" />
      <path d="M 975.5 215  A 1.5 1.5 0 0 1 977 213.5 L 1423 213.5  A 1.5 1.5 0 0 1 1424.5 215 L 1424.5 275  A 1.5 1.5 0 0 1 1423 276.5 L 977 276.5  A 1.5 1.5 0 0 1 975.5 275 L 975.5 215  Z " stroke-width="1" stroke="#c9c9c9" fill="none" stroke-opacity="0.4" />
    </g>
  </defs>
  <g transform="matrix(1 0 0 1 -972 -210 )">
    <use xlink:href="#widget150" filter="url(#filter149)" />
    <use xlink:href="#widget150" />
  </g>
</svg>