<?xml version="1.0" encoding="utf-8"?>
<svg version="1.1" xmlns:xlink="http://www.w3.org/1999/xlink" width="460px" height="70px" xmlns="http://www.w3.org/2000/svg">
  <defs>
    <filter x="972px" y="284px" width="460px" height="70px" filterUnits="userSpaceOnUse" id="filter151">
      <feOffset dx="2" dy="2" in="SourceAlpha" result="shadowOffsetInner" />
      <feGaussianBlur stdDeviation="2.5" in="shadowOffsetInner" result="shadowGaussian" />
      <feComposite in2="shadowGaussian" operator="atop" in="SourceAlpha" result="shadowComposite" />
      <feColorMatrix type="matrix" values="0 0 0 0 1  0 0 0 0 0.8  0 0 0 0 1  0 0 0 0.2 0  " in="shadowComposite" />
    </filter>
    <g id="widget152">
      <path d="M 976 289  A 1 1 0 0 1 977 288 L 1423 288  A 1 1 0 0 1 1424 289 L 1424 345  A 1 1 0 0 1 1423 346 L 977 346  A 1 1 0 0 1 976 345 L 976 289  Z " fill-rule="nonzero" fill="#f2f2f2" stroke="none" fill-opacity="0.309803921568627" />
      <path d="M 975.5 289  A 1.5 1.5 0 0 1 977 287.5 L 1423 287.5  A 1.5 1.5 0 0 1 1424.5 289 L 1424.5 345  A 1.5 1.5 0 0 1 1423 346.5 L 977 346.5  A 1.5 1.5 0 0 1 975.5 345 L 975.5 289  Z " stroke-width="1" stroke="#c9c9c9" fill="none" stroke-opacity="0.4" />
    </g>
  </defs>
  <g transform="matrix(1 0 0 1 -972 -284 )">
    <use xlink:href="#widget152" filter="url(#filter151)" />
    <use xlink:href="#widget152" />
  </g>
</svg>