<?xml version="1.0" encoding="utf-8"?>
<svg version="1.1" xmlns:xlink="http://www.w3.org/1999/xlink" width="20px" height="20px" xmlns="http://www.w3.org/2000/svg">
  <g transform="matrix(1 0 0 1 -249 -794 )">
    <path d="M 1.96428571428571 17.3660714285714  C 1.96428571428571 17.7363839285714  1.66428571428571 18.0357142857143  1.29464285714286 18.0357142857143  C 0.925 18.0357142857143  0.625 17.7363839285714  0.625 17.3660714285714  L 0.625 7.99107142857143  C 0.625 7.62142857142857  0.925 7.32142857142857  1.29464285714286 7.32142857142857  C 1.66428571428571 7.32142857142857  1.96428571428571 7.62142857142857  1.96428571428571 7.99107142857143  L 1.96428571428571 17.3660714285714  Z M 19.3736607142857 9.34709821428571  C 19.3736607142857 8.228125  18.2787946428571 7.32142857142857  17.3727678571429 7.32142857142857  L 13.4098214285714 7.32142857142857  C 13.6984375 6.65178571428571  14.0292410714286 4.92075892857143  13.8357142857143 3.34642857142857  C 13.6823660714286 2.09017857142857  12.9491071428571 1.1265625  11.8743303571429 0.762946428571428  C 11.0774553571429 0.493080357142857  10.2377232142857 0.624330357142857  9.78504464285714 1.08638392857143  C 9.2453125 1.63683035714286  8.9921875 2.67477678571429  8.72433035714286 3.77232142857143  C 8.54888392857143 4.49084821428571  8.36741071428572 5.23482142857143  8.14174107142857 5.6171875  C 7.49084821428572 6.72410714285714  6.12745535714286 7.22901785714286  5.85290178571429 7.32142857142857  L 3.97321428571429 7.32142857142857  C 3.60357142857143 7.32142857142857  3.30357142857143 7.62142857142857  3.30357142857143 7.99107142857143  L 3.30357142857143 17.3660714285714  C 3.30357142857143 17.7363839285714  3.60357142857143 18.0357142857143  3.97321428571429 18.0357142857143  L 5.78526785714286 18.0357142857143  C 6.34508928571429 18.3390625  8.43035714285714 19.375  10.8444196428571 19.375  L 15.3631696428571 19.375  C 16.1071428571429 19.375  17.3888392857143 19.0870535714286  17.8683035714286 18.2928571428571  C 18.3524553571429 17.4879464285714  19.3736607142857 10.159375  19.3736607142857 9.34709821428571  Z M 18.0337053571429 9.34575892857143  C 18.034375 10.2390625  17.0004464285714 16.9683035714286  16.7205357142857 17.6024553571429  C 16.6200892857143 17.7698660714286  15.9571428571429 18.0357142857143  15.3631696428571 18.0357142857143  L 10.8444196428571 18.0357142857143  C 8.45178571428571 18.0357142857143  6.34174107142857 16.6964285714286  6.32098214285714 16.6964285714286  C 6.21986607142857 16.6964285714286  6.10870535714286 16.6964285714286  5.9828125 16.6964285714286  L 4.64285714285714 16.6964285714286  L 4.64285714285714 8.66071428571429  L 5.98214285714286 8.66071428571429  C 6.03705357142857 8.66071428571429  6.0859375 8.64196428571429  6.13683035714286 8.62924107142857  C 6.14754464285714 8.6265625  6.15758928571429 8.62991071428571  6.16830357142857 8.6265625  C 6.17299107142857 8.62522321428571  6.18638392857143 8.62120535714286  6.20379464285714 8.61584821428571  C 6.22120535714286 8.60982142857143  6.23995535714286 8.60647321428571  6.25669642857143 8.5984375  C 6.66383928571429 8.46383928571429  8.40223214285714 7.81696428571428  9.29553571428572 6.29620535714286  C 9.6203125 5.74375  9.8171875 4.94017857142857  10.0247767857143 4.09040178571428  C 10.2183035714286 3.29821428571428  10.4587053571429 2.31316964285714  10.7386160714286 2.02723214285714  C 10.8029017857143 1.97232142857143  11.115625 1.90267857142857  11.5087053571429 2.05736607142857  C 11.8294642857143 2.18392857142857  12.3866071428571 2.54151785714286  12.5058035714286 3.51517857142857  C 12.7696428571429 5.66004464285714  11.8488839285714 7.70245535714286  11.8395089285714 7.72321428571428  C 11.74375 7.93080357142857  11.7611607142857 8.16584821428571  11.884375 8.35803571428571  C 12.0075892857143 8.54955357142857  12.2191964285714 8.66004464285714  12.4475446428571 8.66004464285714  L 17.3720982142857 8.66004464285714  C 17.5535714285714 8.66004464285714  18.0337053571429 8.97477678571429  18.0337053571429 9.34575892857143  Z " fill-rule="nonzero" fill="#272636" stroke="none" transform="matrix(1 0 0 1 249 794 )" />
  </g>
</svg>