<?xml version="1.0" encoding="utf-8"?>
<svg version="1.1" xmlns:xlink="http://www.w3.org/1999/xlink" width="460px" height="55px" xmlns="http://www.w3.org/2000/svg">
  <defs>
    <filter x="972px" y="466px" width="460px" height="55px" filterUnits="userSpaceOnUse" id="filter153">
      <feOffset dx="2" dy="2" in="SourceAlpha" result="shadowOffsetInner" />
      <feGaussianBlur stdDeviation="2.5" in="shadowOffsetInner" result="shadowGaussian" />
      <feComposite in2="shadowGaussian" operator="atop" in="SourceAlpha" result="shadowComposite" />
      <feColorMatrix type="matrix" values="0 0 0 0 1  0 0 0 0 0.8  0 0 0 0 1  0 0 0 0.2 0  " in="shadowComposite" />
    </filter>
    <g id="widget154">
      <path d="M 976 471  A 1 1 0 0 1 977 470 L 1423 470  A 1 1 0 0 1 1424 471 L 1424 512  A 1 1 0 0 1 1423 513 L 977 513  A 1 1 0 0 1 976 512 L 976 471  Z " fill-rule="nonzero" fill="#f2f2f2" stroke="none" fill-opacity="0.309803921568627" />
      <path d="M 975.5 471  A 1.5 1.5 0 0 1 977 469.5 L 1423 469.5  A 1.5 1.5 0 0 1 1424.5 471 L 1424.5 512  A 1.5 1.5 0 0 1 1423 513.5 L 977 513.5  A 1.5 1.5 0 0 1 975.5 512 L 975.5 471  Z " stroke-width="1" stroke="#c9c9c9" fill="none" stroke-opacity="0.4" />
    </g>
  </defs>
  <g transform="matrix(1 0 0 1 -972 -466 )">
    <use xlink:href="#widget154" filter="url(#filter153)" />
    <use xlink:href="#widget154" />
  </g>
</svg>