<?xml version="1.0" encoding="utf-8"?>
<svg version="1.1" xmlns:xlink="http://www.w3.org/1999/xlink" width="460px" height="118px" xmlns="http://www.w3.org/2000/svg">
  <defs>
    <filter x="972px" y="351px" width="460px" height="118px" filterUnits="userSpaceOnUse" id="filter155">
      <feOffset dx="2" dy="2" in="SourceAlpha" result="shadowOffsetInner" />
      <feGaussianBlur stdDeviation="2.5" in="shadowOffsetInner" result="shadowGaussian" />
      <feComposite in2="shadowGaussian" operator="atop" in="SourceAlpha" result="shadowComposite" />
      <feColorMatrix type="matrix" values="0 0 0 0 1  0 0 0 0 0.8  0 0 0 0 1  0 0 0 0.2 0  " in="shadowComposite" />
    </filter>
    <g id="widget156">
      <path d="M 976 356  A 1 1 0 0 1 977 355 L 1423 355  A 1 1 0 0 1 1424 356 L 1424 460  A 1 1 0 0 1 1423 461 L 977 461  A 1 1 0 0 1 976 460 L 976 356  Z " fill-rule="nonzero" fill="#f2f2f2" stroke="none" fill-opacity="0.309803921568627" />
      <path d="M 975.5 356  A 1.5 1.5 0 0 1 977 354.5 L 1423 354.5  A 1.5 1.5 0 0 1 1424.5 356 L 1424.5 460  A 1.5 1.5 0 0 1 1423 461.5 L 977 461.5  A 1.5 1.5 0 0 1 975.5 460 L 975.5 356  Z " stroke-width="1" stroke="#c9c9c9" fill="none" stroke-opacity="0.4" />
    </g>
  </defs>
  <g transform="matrix(1 0 0 1 -972 -351 )">
    <use xlink:href="#widget156" filter="url(#filter155)" />
    <use xlink:href="#widget156" />
  </g>
</svg>