<?xml version="1.0" encoding="utf-8"?>
<svg version="1.1" xmlns:xlink="http://www.w3.org/1999/xlink" width="21px" height="15px" xmlns="http://www.w3.org/2000/svg">
  <g transform="matrix(1 0 0 1 -117 -733 )">
    <path d="M 10.4737153212891 14.5139507995605  C 4.68923919433594 14.5139507995605  0.00103880273437401 9.25733353271485  0.00103880273437401 7.5  C 0.00103880273437401 5.17929219360352  4.68923919433594 0.486311535644531  10.4737153212891 0.486311535644531  C 16.2588629970703 0.486311535644531  20.9470424091797 5.72951290283203  20.9470424091797 7.5  C 20.9470424091797 9.34925870361328  16.2588629970703 14.5139507995605  10.4737153212891 14.5139507995605  Z M 10.4737153212891 1.65521901855469  C 5.41222001660156 1.65521901855469  1.30893504492187 5.56659210205078  1.30893504492187 7.50001875  C 1.30893504492187 8.96458201904297  5.41224099609375 13.3450807983398  10.4737153212891 13.3450807983398  C 15.5352526054688 13.3450807983398  19.6379080078125 8.89036360473633  19.6379080078125 7.50001875  C 19.6378870078125 6.07253657226563  15.5352526054688 1.65521901855469  10.4737153212891 1.65521901855469  Z M 10.4737153212891 11.0072658325195  C 8.30416428515625 11.0072658325195  6.54559858886719 9.4371741027832  6.54559858886719 7.50001875  C 6.54559858886719 5.56400635986328  8.30416428515625 3.99329630126953  10.4737153212891 3.99329630126953  C 12.6420281982422 3.99329630126953  14.401202484375 5.56400635986328  14.401202484375 7.50001875  C 14.401202484375 9.4371741027832  12.6420281982422 11.0072658325195  10.4737153212891 11.0072658325195  Z M 10.4737153212891 5.16220378417969  C 9.02712410742187 5.16220378417969  7.85542551855469 6.20868176879883  7.85542551855469 7.50001875  C 7.85542551855469 8.7916180480957  9.02712410742187 9.83779623413086  10.4737153212891 9.83779623413086  C 11.9196769658203 9.83779623413086  13.0920680830078 8.7916180480957  13.0920680830078 7.50001875  C 13.0920470830078 6.20866301879883  11.9196769658203 5.16220378417969  10.4737153212891 5.16220378417969  Z " fill-rule="nonzero" fill="#272636" stroke="none" transform="matrix(1 0 0 1 117 733 )" />
  </g>
</svg>