<?xml version="1.0" encoding="utf-8"?>
<svg version="1.1" xmlns:xlink="http://www.w3.org/1999/xlink" width="24px" height="6px" xmlns="http://www.w3.org/2000/svg">
  <g transform="matrix(1 0 0 1 -432 -298 )">
    <path d="M 6.37342517578125 2.99748026367187  C 6.37342517578125 4.54963883789062  5.11355619140625 5.80950782226563  3.5613976171875 5.80950782226563  C 2.00923904296875 5.80950782226563  0.74937005859375 4.54963883789063  0.74937005859375 2.99748026367187  C 0.74937005859375 1.44532168945312  2.00923904296875 0.185452705078125  3.5613976171875 0.185452705078125  C 5.11355619140625 0.185452705078125  6.37342517578125 1.44532168945313  6.37342517578125 2.99748026367187  Z M 14.8095078222656 2.99748026367187  C 14.8095078222656 4.54963883789062  13.5496388378906 5.80950782226563  11.9974802636719 5.80950782226563  C 10.4453216894531 5.80950782226563  9.18545270507813 4.54963883789063  9.18545270507813 2.99748026367187  C 9.18545270507813 1.44532168945312  10.4453216894531 0.185452705078125  11.9974802636719 0.185452705078125  C 13.5496388378906 0.185452705078125  14.8095078222656 1.44532168945313  14.8095078222656 2.99748026367187  Z M 23.2506299414063 2.99748026367187  C 23.2506299414063 4.54963883789062  21.985721484375 5.80950782226563  20.4386023828125 5.80950782226563  C 18.8864438085938 5.80950782226563  17.6265748242187 4.54963883789063  17.6265748242187 2.99748026367187  C 17.6265748242187 1.44532168945312  18.8864438085938 0.185452705078125  20.4386023828125 0.185452705078125  C 21.9907609570313 0.185452705078125  23.2506299414063 1.44532168945313  23.2506299414063 2.99748026367187  Z " fill-rule="nonzero" fill="#272636" stroke="none" transform="matrix(1 0 0 1 432 298 )" />
  </g>
</svg>