<?xml version="1.0" encoding="utf-8"?>
<svg version="1.1" xmlns:xlink="http://www.w3.org/1999/xlink" width="460px" height="56px" xmlns="http://www.w3.org/2000/svg">
  <defs>
    <filter x="584px" y="210px" width="460px" height="56px" filterUnits="userSpaceOnUse" id="filter126">
      <feOffset dx="2" dy="2" in="SourceAlpha" result="shadowOffsetInner" />
      <feGaussianBlur stdDeviation="2.5" in="shadowOffsetInner" result="shadowGaussian" />
      <feComposite in2="shadowGaussian" operator="atop" in="SourceAlpha" result="shadowComposite" />
      <feColorMatrix type="matrix" values="0 0 0 0 1  0 0 0 0 0.8  0 0 0 0 1  0 0 0 0.2 0  " in="shadowComposite" />
    </filter>
    <g id="widget127">
      <path d="M 588 215  A 1 1 0 0 1 589 214 L 1035 214  A 1 1 0 0 1 1036 215 L 1036 257  A 1 1 0 0 1 1035 258 L 589 258  A 1 1 0 0 1 588 257 L 588 215  Z " fill-rule="nonzero" fill="#f2f2f2" stroke="none" fill-opacity="0.309803921568627" />
      <path d="M 587.5 215  A 1.5 1.5 0 0 1 589 213.5 L 1035 213.5  A 1.5 1.5 0 0 1 1036.5 215 L 1036.5 257  A 1.5 1.5 0 0 1 1035 258.5 L 589 258.5  A 1.5 1.5 0 0 1 587.5 257 L 587.5 215  Z " stroke-width="1" stroke="#c9c9c9" fill="none" stroke-opacity="0.4" />
    </g>
  </defs>
  <g transform="matrix(1 0 0 1 -584 -210 )">
    <use xlink:href="#widget127" filter="url(#filter126)" />
    <use xlink:href="#widget127" />
  </g>
</svg>