<?xml version="1.0" encoding="utf-8"?>
<svg version="1.1" xmlns:xlink="http://www.w3.org/1999/xlink" width="40px" height="40px" xmlns="http://www.w3.org/2000/svg">
  <defs>
    <filter x="923px" y="95px" width="40px" height="40px" filterUnits="userSpaceOnUse" id="filter141">
      <feOffset dx="5" dy="5" in="SourceAlpha" result="shadowOffsetInner" />
      <feGaussianBlur stdDeviation="2.5" in="shadowOffsetInner" result="shadowGaussian" />
      <feComposite in2="shadowGaussian" operator="atop" in="SourceAlpha" result="shadowComposite" />
      <feColorMatrix type="matrix" values="0 0 0 0 0  0 0 0 0 0  0 0 0 0 0  0 0 0 0.2 0  " in="shadowComposite" />
    </filter>
    <g id="widget142">
      <path d="M 938 96  C 945.84 96  952 102.16  952 110  C 952 117.84  945.84 124  938 124  C 930.16 124  924 117.84  924 110  C 924 102.16  930.16 96  938 96  Z " fill-rule="nonzero" fill="#ffffff" stroke="none" fill-opacity="0" />
      <path d="M 938 96  C 945.84 96  952 102.16  952 110  C 952 117.84  945.84 124  938 124  C 930.16 124  924 117.84  924 110  C 924 102.16  930.16 96  938 96  Z " stroke-width="2" stroke="#ff0000" fill="none" />
    </g>
  </defs>
  <g transform="matrix(1 0 0 1 -923 -95 )">
    <use xlink:href="#widget142" filter="url(#filter141)" />
    <use xlink:href="#widget142" />
  </g>
</svg>