<?xml version="1.0" encoding="utf-8"?>
<svg version="1.1" xmlns:xlink="http://www.w3.org/1999/xlink" width="460px" height="96px" xmlns="http://www.w3.org/2000/svg">
  <defs>
    <filter x="960px" y="92px" width="460px" height="96px" filterUnits="userSpaceOnUse" id="filter143">
      <feOffset dx="2" dy="2" in="SourceAlpha" result="shadowOffsetInner" />
      <feGaussianBlur stdDeviation="2.5" in="shadowOffsetInner" result="shadowGaussian" />
      <feComposite in2="shadowGaussian" operator="atop" in="SourceAlpha" result="shadowComposite" />
      <feColorMatrix type="matrix" values="0 0 0 0 1  0 0 0 0 0.8  0 0 0 0 1  0 0 0 0.2 0  " in="shadowComposite" />
    </filter>
    <g id="widget144">
      <path d="M 964 97  A 1 1 0 0 1 965 96 L 1411 96  A 1 1 0 0 1 1412 97 L 1412 179  A 1 1 0 0 1 1411 180 L 965 180  A 1 1 0 0 1 964 179 L 964 97  Z " fill-rule="nonzero" fill="#f2f2f2" stroke="none" fill-opacity="0.309803921568627" />
      <path d="M 963.5 97  A 1.5 1.5 0 0 1 965 95.5 L 1411 95.5  A 1.5 1.5 0 0 1 1412.5 97 L 1412.5 179  A 1.5 1.5 0 0 1 1411 180.5 L 965 180.5  A 1.5 1.5 0 0 1 963.5 179 L 963.5 97  Z " stroke-width="1" stroke="#c9c9c9" fill="none" stroke-opacity="0.4" />
    </g>
  </defs>
  <g transform="matrix(1 0 0 1 -960 -92 )">
    <use xlink:href="#widget144" filter="url(#filter143)" />
    <use xlink:href="#widget144" />
  </g>
</svg>