<?xml version="1.0" standalone="no"?><!DOCTYPE svg PUBLIC "-//W3C//DTD SVG 1.1//EN" "http://www.w3.org/Graphics/SVG/1.1/DTD/svg11.dtd"><svg t="1538983097239" class="icon" style="" viewBox="0 0 1024 1024" version="1.1" xmlns="http://www.w3.org/2000/svg" p-id="1363" xmlns:xlink="http://www.w3.org/1999/xlink" width="32" height="32"><defs><style type="text/css"></style></defs><path d="M883.2 755.2l-46.933-110.933V460.8c0-166.4-128-307.2-290.134-324.267v-51.2c0-17.066-17.066-34.133-34.133-34.133s-34.133 17.067-34.133 34.133v51.2C315.733 153.6 187.733 290.133 187.733 460.8v183.467L140.8 755.2c-12.8 21.333 4.267 46.933 29.867 46.933h682.666c25.6 0 42.667-25.6 29.867-46.933z m-661.333-21.333l29.866-68.267c0-4.267 4.267-8.533 4.267-12.8V465.067c0-140.8 115.2-256 256-256s256 115.2 256 256V652.8c0 4.267 0 8.533 4.267 12.8l29.866 68.267H221.867zM512 913.067c-34.133 0-59.733-25.6-59.733-59.734H384c0 72.534 55.467 128 128 128s128-55.466 128-128h-68.267c0 34.134-25.6 59.734-59.733 59.734z" p-id="1364"></path></svg>