<?xml version="1.0" encoding="utf-8"?>
<svg version="1.1" xmlns:xlink="http://www.w3.org/1999/xlink" width="15px" height="22px" xmlns="http://www.w3.org/2000/svg">
  <g transform="matrix(1 0 0 1 -112 -84 )">
    <path d="M 13.6803352929687 21.3640555712891  C 13.4065817773437 21.6167055908203  13.0465495214844 21.7421759521485  12.68656765625 21.7421759521485  C 12.3265857910156 21.7421759521485  11.9665535351563 21.6167055908203  11.6918928710938 21.3649333154297  L 1.38032521484375 11.9126629370117  C 0.83095349609377 11.4099499389649  0.83095349609377 10.5935147924805  1.38032521484375 10.089924050293  L 11.6918929003906 0.636775981445311  C 12.2412646191406 0.133185239257813  13.1309636035156 0.133185239257813  13.6803353222656 0.636775981445311  C 14.2297070410156 1.13948897949219  14.2297070410156 1.95592412597657  13.6803353222656 2.45951486816406  L 4.36344242187499 11.0008315527344  L 13.6803352929687 19.5413166845703  C 14.2297070117187 20.0449074267578  14.2297070117187 20.8604648291016  13.6803352929687 21.3640555712891  Z " fill-rule="nonzero" fill="#ffffff" stroke="none" transform="matrix(1 0 0 1 112 84 )" />
  </g>
</svg>