<?xml version="1.0" encoding="utf-8"?>
<svg version="1.1" xmlns:xlink="http://www.w3.org/1999/xlink" width="460px" height="358px" xmlns="http://www.w3.org/2000/svg">
  <defs>
    <filter x="581px" y="69px" width="460px" height="358px" filterUnits="userSpaceOnUse" id="filter172">
      <feOffset dx="2" dy="2" in="SourceAlpha" result="shadowOffsetInner" />
      <feGaussianBlur stdDeviation="2.5" in="shadowOffsetInner" result="shadowGaussian" />
      <feComposite in2="shadowGaussian" operator="atop" in="SourceAlpha" result="shadowComposite" />
      <feColorMatrix type="matrix" values="0 0 0 0 1  0 0 0 0 0.8  0 0 0 0 1  0 0 0 0.2 0  " in="shadowComposite" />
    </filter>
    <g id="widget173">
      <path d="M 585 74  A 1 1 0 0 1 586 73 L 1032 73  A 1 1 0 0 1 1033 74 L 1033 418  A 1 1 0 0 1 1032 419 L 586 419  A 1 1 0 0 1 585 418 L 585 74  Z " fill-rule="nonzero" fill="#f2f2f2" stroke="none" fill-opacity="0.309803921568627" />
      <path d="M 584.5 74  A 1.5 1.5 0 0 1 586 72.5 L 1032 72.5  A 1.5 1.5 0 0 1 1033.5 74 L 1033.5 418  A 1.5 1.5 0 0 1 1032 419.5 L 586 419.5  A 1.5 1.5 0 0 1 584.5 418 L 584.5 74  Z " stroke-width="1" stroke="#c9c9c9" fill="none" stroke-opacity="0.4" />
    </g>
  </defs>
  <g transform="matrix(1 0 0 1 -581 -69 )">
    <use xlink:href="#widget173" filter="url(#filter172)" />
    <use xlink:href="#widget173" />
  </g>
</svg>