<?xml version="1.0" encoding="utf-8"?>
<svg version="1.1" xmlns:xlink="http://www.w3.org/1999/xlink" width="460px" height="255px" xmlns="http://www.w3.org/2000/svg">
  <defs>
    <filter x="570px" y="81px" width="460px" height="255px" filterUnits="userSpaceOnUse" id="filter161">
      <feOffset dx="2" dy="2" in="SourceAlpha" result="shadowOffsetInner" />
      <feGaussianBlur stdDeviation="2.5" in="shadowOffsetInner" result="shadowGaussian" />
      <feComposite in2="shadowGaussian" operator="atop" in="SourceAlpha" result="shadowComposite" />
      <feColorMatrix type="matrix" values="0 0 0 0 1  0 0 0 0 0.8  0 0 0 0 1  0 0 0 0.2 0  " in="shadowComposite" />
    </filter>
    <g id="widget162">
      <path d="M 574 86  A 1 1 0 0 1 575 85 L 1021 85  A 1 1 0 0 1 1022 86 L 1022 327  A 1 1 0 0 1 1021 328 L 575 328  A 1 1 0 0 1 574 327 L 574 86  Z " fill-rule="nonzero" fill="#f2f2f2" stroke="none" fill-opacity="0.309803921568627" />
      <path d="M 573.5 86  A 1.5 1.5 0 0 1 575 84.5 L 1021 84.5  A 1.5 1.5 0 0 1 1022.5 86 L 1022.5 327  A 1.5 1.5 0 0 1 1021 328.5 L 575 328.5  A 1.5 1.5 0 0 1 573.5 327 L 573.5 86  Z " stroke-width="1" stroke="#c9c9c9" fill="none" stroke-opacity="0.4" />
    </g>
  </defs>
  <g transform="matrix(1 0 0 1 -570 -81 )">
    <use xlink:href="#widget162" filter="url(#filter161)" />
    <use xlink:href="#widget162" />
  </g>
</svg>