<?xml version="1.0" encoding="utf-8"?>
<svg version="1.1" xmlns:xlink="http://www.w3.org/1999/xlink" width="460px" height="75px" xmlns="http://www.w3.org/2000/svg">
  <defs>
    <filter x="570px" y="338px" width="460px" height="75px" filterUnits="userSpaceOnUse" id="filter163">
      <feOffset dx="2" dy="2" in="SourceAlpha" result="shadowOffsetInner" />
      <feGaussianBlur stdDeviation="2.5" in="shadowOffsetInner" result="shadowGaussian" />
      <feComposite in2="shadowGaussian" operator="atop" in="SourceAlpha" result="shadowComposite" />
      <feColorMatrix type="matrix" values="0 0 0 0 1  0 0 0 0 0.8  0 0 0 0 1  0 0 0 0.2 0  " in="shadowComposite" />
    </filter>
    <g id="widget164">
      <path d="M 574 343  A 1 1 0 0 1 575 342 L 1021 342  A 1 1 0 0 1 1022 343 L 1022 404  A 1 1 0 0 1 1021 405 L 575 405  A 1 1 0 0 1 574 404 L 574 343  Z " fill-rule="nonzero" fill="#f2f2f2" stroke="none" fill-opacity="0.309803921568627" />
      <path d="M 573.5 343  A 1.5 1.5 0 0 1 575 341.5 L 1021 341.5  A 1.5 1.5 0 0 1 1022.5 343 L 1022.5 404  A 1.5 1.5 0 0 1 1021 405.5 L 575 405.5  A 1.5 1.5 0 0 1 573.5 404 L 573.5 343  Z " stroke-width="1" stroke="#c9c9c9" fill="none" stroke-opacity="0.4" />
    </g>
  </defs>
  <g transform="matrix(1 0 0 1 -570 -338 )">
    <use xlink:href="#widget164" filter="url(#filter163)" />
    <use xlink:href="#widget164" />
  </g>
</svg>