<?xml version="1.0" encoding="utf-8"?>
<svg version="1.1" xmlns:xlink="http://www.w3.org/1999/xlink" width="49px" height="49px" xmlns="http://www.w3.org/2000/svg">
  <g transform="matrix(1 0 0 1 -213 -466 )">
    <path d="M 237.5 466  C 251.22 466  262 476.78  262 490.5  C 262 504.22  251.22 515  237.5 515  C 223.78 515  213 504.22  213 490.5  C 213 476.78  223.78 466  237.5 466  Z " fill-rule="nonzero" fill="#ffffff" stroke="none" />
    <path d="M 237.5 466.5  C 250.94 466.5  261.5 477.06  261.5 490.5  C 261.5 503.94  250.94 514.5  237.5 514.5  C 224.06 514.5  213.5 503.94  213.5 490.5  C 213.5 477.06  224.06 466.5  237.5 466.5  Z " stroke-width="1" stroke="#797979" fill="none" />
  </g>
</svg>