<?xml version="1.0" encoding="utf-8"?>
<svg version="1.1" xmlns:xlink="http://www.w3.org/1999/xlink" width="20px" height="20px" xmlns="http://www.w3.org/2000/svg">
  <g transform="matrix(1 0 0 1 -394 -398 )">
    <path d="M 19.3736607142857 9.34776785714286  C 19.3736607142857 8.22544642857143  18.2787946428571 7.32142857142857  17.3727678571429 7.32142857142857  L 13.4104910714286 7.32142857142857  C 13.6991071428571 6.65178571428571  14.0292410714286 4.92142857142857  13.8357142857143 3.34910714285714  C 13.6823660714286 2.09486607142857  12.9504464285714 1.12924107142857  11.8770089285714 0.765625  C 11.0808035714286 0.495758928571429  10.2383928571429 0.625  9.78504464285714 1.08839285714286  C 9.2453125 1.63816964285714  8.99151785714286 2.67544642857143  8.72366071428572 3.77299107142857  C 8.54821428571429 4.4921875  8.36607142857143 5.23482142857143  8.14107142857143 5.61785714285714  C 7.48816964285714 6.728125  6.11808035714286 7.32142857142857  5.85022321428571 7.32142857142857  L 3.97321428571429 7.32142857142857  C 3.60357142857143 7.32142857142857  3.30357142857143 7.6234375  3.30357142857143 7.99308035714286  L 3.30357142857143 17.3667410714286  C 3.30357142857143 17.7370535714286  3.60357142857143 18.0357142857143  3.97321428571429 18.0357142857143  L 5.78526785714286 18.0357142857143  C 6.34508928571429 18.0357142857143  8.43102678571429 19.375  10.8444196428571 19.375  L 15.3631696428571 19.375  C 16.1071428571429 19.375  17.3881696428571 19.0870535714286  17.8683035714286 18.2935267857143  C 18.3524553571429 17.4886160714286  19.3736607142857 10.1600446428571  19.3736607142857 9.34776785714286  Z M 1.96428571428571 7.99308035714286  C 1.96428571428571 7.6234375  1.66428571428571 7.3234375  1.29464285714286 7.3234375  C 0.925 7.3234375  0.625 7.6234375  0.625 7.99308035714286  L 0.625 17.3667410714286  C 0.625 17.7370535714286  0.925 18.0363839285714  1.29464285714286 18.0363839285714  C 1.66428571428571 18.0363839285714  1.96428571428571 17.7370535714286  1.96428571428571 17.3667410714286  L 1.96428571428571 7.99308035714286  Z " fill-rule="nonzero" fill="#272636" stroke="none" transform="matrix(1 0 0 1 394 398 )" />
  </g>
</svg>