<?xml version="1.0" encoding="utf-8"?>
<svg version="1.1" xmlns:xlink="http://www.w3.org/1999/xlink" width="20px" height="17px" xmlns="http://www.w3.org/2000/svg">
  <g transform="matrix(1 0 0 1 -1124 -3908 )">
    <path d="M 6.83212493028444 13.5988292011019  C 7.13329615170106 13.4934573002755  7.36568135341142 13.3080808080808  7.5292805354155 13.0426997245179  C 7.68544339096486 12.777318640955  7.72634318646589 12.5080348943985  7.65197992191857 12.2348484848485  C 7.57761665737126 11.9616620752984  7.4102993121398 11.7665289256198  7.1500278862242 11.6494490358127  C 6.89719278676334 11.5401744719927  6.62576687116564 11.5362718089991  6.33575013943112 11.637741046832  C 6.0457334076966 11.7392102846648  5.82264361405466 11.9187327823691  5.6664807585053 12.1763085399449  C 5.50288157650121 12.4416896235078  5.45454545454546 12.7090220385675  5.52147239263804 12.978305785124  C 5.58839933073062 13.2475895316804  5.74828034950734 13.4446740128558  6.00111544896821 13.5695592286501  C 6.25395054842908 13.6944444444444  6.53095370886782 13.7042011019284  6.83212493028444 13.5988292011019  Z M 8.33240379252649 11.8426308539945  C 8.44394868934746 11.7997015610652  8.52574828034951 11.7275022956841  8.57780256553263 11.6260330578512  C 8.63729317717048 11.5245638200184  8.65030674846626 11.4211432506887  8.61684327941997 11.3157713498623  C 8.58337981037368 11.2103994490358  8.51831195389478 11.1382001836547  8.42163970998327 11.099173553719  C 8.31753113961703 11.0601469237833  8.21156348763711 11.0620982552801  8.1037367540435 11.1050275482094  C 7.9959100204499 11.1479568411387  7.91596951106154 11.2201561065197  7.86391522587842 11.3216253443526  C 7.73749767614798 11.5635904499541  7.78583379810374 11.7392102846648  8.00892359174568 11.8484848484848  C 8.11303216211192 11.8875114784206  8.22085889570552 11.8855601469238  8.33240379252649 11.8426308539945  Z M 10.4907975460123 10.6484159779614  C 10.844023052612 11.354797979798  10.8533184606804 12.0982552800735  10.5186837702175 12.8787878787879  C 10.1840490797546 13.6749311294766  9.59657928983082 14.2603305785124  8.75627440044618 14.6349862258953  C 7.91596951106154 15.0096418732782  7.08310094813162 15.0564738292011  6.25766871165644 14.7754820936639  C 5.46198178100019 14.510101010101  4.91355270496375 14.0164141414141  4.61238148354713 13.2944214876033  C 4.31121026213051 12.5724288337925  4.33537832310838 11.8406795224977  4.68488566648076 11.099173553719  C 5.03439300985313 10.3732782369146  5.59769473879903 9.83080808080808  6.37479085331846 9.47176308539945  C 7.15188696783789 9.11271808999082  7.93456032719836 9.03856749311295  8.72281093139989 9.24931129476584  C 9.54824316787507 9.47566574839302  10.1375720394125 9.94203397612489  10.4907975460123 10.6484159779614  Z M 12.5209146681539 14.1022727272727  C 13.6103364937721 13.1773415977961  14.102993121398 12.1450872359963  13.9988845510318 11.0055096418733  C 13.9319576129392 10.2561983471074  13.6010410857037 9.59274563820018  13.0061349693252 9.01515151515152  C 12.4112288529466 8.43755739210285  11.6359918200409 8.01216712580349  10.6804238706079 7.73898071625344  C 9.72485592117494 7.4657943067034  8.70422011526306 7.38383838383838  7.61851645287228 7.4931129476584  C 5.96021565346719 7.67263544536272  4.58635434095557 8.22486225895317  3.49693251533742 9.14979338842975  C 2.40751068971928 10.0747245179063  1.91485406209333 11.1069788797062  2.01896263245956 12.2465564738292  C 2.08588957055215 12.995867768595  2.41680609778769 13.6593204775023  3.0117122141662 14.236914600551  C 3.60661833054471 14.8145087235996  4.38185536345046 15.239898989899  5.33742331288344 15.513085399449  C 6.29299126231642 15.7862718089991  7.3136270682283 15.8682277318641  8.39933073061907 15.7589531680441  C 10.0576315300242 15.5794306703398  11.4314928425358 15.0272038567493  12.5209146681539 14.1022727272727  Z M 17.0552147239264 9.6883608815427  C 17.3080498233873 10.0981404958678  17.4344673731177 10.5528007346189  17.4344673731177 11.0523415977961  C 17.4344673731177 11.5831037649219  17.2968953337052 12.1275252525253  17.0217512548801 12.6856060606061  C 16.746607176055 13.2436868686869  16.3413273842722 13.7783516988062  15.8059118795315 14.2896005509642  C 15.2704963747909 14.8008494031221  14.6439858709797 15.2594123048668  13.9263803680982 15.6652892561983  C 13.2087748652166 16.0711662075298  12.3684699758319 16.3950872359963  11.4054656999442 16.6370523415978  C 10.4424614240565 16.8790174471993  9.4366982710541 17  8.38817624093698 17  C 7.33965421081986 17  6.31715932329429 16.8692607897153  5.32069157836029 16.607782369146  C 4.32422383342629 16.3463039485767  3.43000557724484 15.9833562901745  2.63803680981595 15.5189393939394  C 1.84606804238706 15.0545224977043  1.20840304889385 14.4652203856749  0.725041829336308 13.7510330578512  C 0.241680609778769 13.0368457300275  0 12.2582644628099  0 11.4152892561983  C 0 10.5176767676768  0.258412344301915 9.56152433425161  0.775237032905745 8.54683195592286  C 1.29206172150957 7.53213957759412  2.0263989589143 6.52525252525252  2.97824874511991 5.52617079889807  C 4.23498791596951 4.20707070707071  5.50474065811489 3.28604224058769  6.78750697155605 2.76308539944904  C 8.07027328499721 2.24012855831038  8.98680052054285 2.26744719926538  9.53708867819297 2.84504132231405  C 10.0204498977505 3.34458218549127  10.0948131622978 4.16023875114784  9.76017847183491 5.29201101928375  C 9.73043316601599 5.40128558310376  9.72671500278862 5.47933884297521  9.74902398215282 5.52617079889807  C 9.77133296151701 5.57300275482093  9.80851459379067 5.60032139577594  9.86056887897379 5.60812672176309  C 9.91262316415691 5.61593204775023  9.96653653095371 5.61398071625344  10.0223089793642 5.60227272727273  C 10.0780814277747 5.59056473829201  10.1282766313441 5.57690541781451  10.1728945900725 5.56129476584022  L 10.2398215281651 5.53787878787879  C 11.2734709053727 5.07736455463728  12.1881390593047 4.84710743801653  12.983825989961 4.84710743801653  C 13.7795129206172 4.84710743801653  14.3483918944042 5.08516988062442  14.6904629113218 5.56129476584022  C 15.0250976017847 6.0530303030303  15.0250976017847 6.74770431588613  14.6904629113218 7.64531680440771  C 14.6755902584123 7.74678604224059  14.6588585238892 7.82483930211203  14.6402677077524 7.87947658402204  C 14.6216768916155 7.93411386593205  14.6384086261387 7.9828971533517  14.6904629113218 8.02582644628099  C 14.7425171965049 8.06875573921029  14.7871351552333 8.09802571166207  14.824316787507 8.11363636363636  C 14.8614984197806 8.12924701561065  14.9247071946458 8.15266299357208  15.0139431121026 8.18388429752066  C 15.4378137200223 8.32438016528926  15.820784532441 8.50780532598714  16.1628555493586 8.73415977961433  C 16.5049265662763 8.9605142332415  16.8023796244655 9.27858126721763  17.0552147239264 9.6883608815427  Z M 15.4824316787507 2.97968319559229  C 15.9211749395798 3.12408172635445  16.2967094255438 3.37970615243342  16.6090351366425 3.7465564738292  C 16.9213608477412 4.11340679522498  17.1240007436326 4.53684573002755  17.2169548243168 5.01687327823691  C 17.3099089050009 5.49690082644628  17.2857408440231 5.955463728191  17.1444506413832 6.39256198347107  C 17.0849600297453 6.57208448117539  16.975274214538 6.70477502295684  16.8153931957613 6.79063360881543  C 16.6555121769846 6.87649219467401  16.4900539133668 6.8921028466483  16.319018404908 6.83746556473829  C 16.1479828964492 6.77502295684114  16.0215653467187 6.65989439853076  15.9397657557167 6.49207988980716  C 15.8579661647146 6.32426538108356  15.8430935118052 6.1505968778696  15.8951477969883 5.97107438016529  C 16.0438743260829 5.47933884297521  15.9546384086261 5.04614325068871  15.627440044618 4.67148760330579  C 15.3002416806098 4.29683195592287  14.9023982152817 4.16023875114784  14.4339096486336 4.26170798898072  C 14.25543781372 4.30073461891644  14.0881204684886 4.26951331496786  13.9319576129392 4.16804407713499  C 13.7757947573898 4.06657483930211  13.6828406767057 3.92217630853995  13.6530953708868 3.73484848484849  C 13.6159137386131 3.54752066115703  13.6456590444321 3.37385215794307  13.7423312883436 3.21384297520661  C 13.8390035322551 3.05383379247016  13.9765755716676 2.95431588613407  14.1550474065811 2.91528925619835  C 14.601226993865 2.81382001836547  15.0436884179215 2.83528466483012  15.4824316787507 2.97968319559229  Z M 16.3078639152259 0.263429752066115  C 17.2076594162484 0.556129476584022  17.9810373675404 1.08103764921947  18.6279977691021 1.83815426997245  C 19.2749581706637 2.58746556473829  19.6932515337423 3.45580808080808  19.882877858338 4.44318181818182  C 20.0725041829336 5.43055555555556  20.0223089793642 6.37304866850321  19.7322922476297 7.27066115702479  C 19.6653653095371 7.48140495867769  19.5389477598067 7.63751147842057  19.3530395984384 7.73898071625344  C 19.1671314370701 7.84044995408632  18.9737869492471 7.85606060606061  18.7730061349693 7.78581267217631  C 18.5722253206916 7.71556473829201  18.423498791597 7.58287419651056  18.3268265476854 7.38774104683196  C 18.2301543037739 7.19260789715335  18.2115634876371 6.9896694214876  18.271054099275 6.77892561983471  C 18.4792712400074 6.13888888888889  18.5164528722811 5.46763085399449  18.3825989960959 4.76515151515151  C 18.2487451199108 4.06267217630854  17.9512920617215 3.44605142332415  17.4902398215282 2.91528925619835  C 17.0291875813348 2.3767217630854  16.4788994236847 2.00401744719926  15.8393753485778 1.79717630853995  C 15.1998512734709 1.59033516988062  14.5566090351366 1.55716253443526  13.909648633575 1.69765840220386  C 13.7014314928425 1.74449035812672  13.5080870050195 1.70741505968779  13.329615170106 1.58643250688705  C 13.1511433351924 1.46544995408632  13.0395984383714 1.29568411386593  12.9949804796431 1.07713498622589  C 12.9503625209147 0.858585858585858  12.9856850715746 0.657598714416894  13.100948131623 0.474173553719009  C 13.2162111916713 0.29074839302112  13.3779512920617 0.175619834710744  13.5861684327942 0.128787878787879  C 14.5008365867262 -0.0741505968778724  15.4080684142034 -0.0292699724517897  16.3078639152259 0.263429752066115  Z " fill-rule="nonzero" fill="#000000" stroke="none" transform="matrix(1 0 0 1 1124 3908 )" />
  </g>
</svg>