<?xml version="1.0" encoding="utf-8"?>
<svg version="1.1" xmlns:xlink="http://www.w3.org/1999/xlink" width="20px" height="17px" xmlns="http://www.w3.org/2000/svg">
  <g transform="matrix(1 0 0 1 -1198 -3908 )">
    <path d="M 5.419921875 4.73411270983213  C 5.58268229166667 4.56764588329336  5.6640625 4.3451239008793  5.6640625 4.06654676258993  C 5.6640625 3.78796962430056  5.58268229166667 3.56374900079936  5.419921875 3.39388489208633  C 5.25716145833333 3.2240207833733  5.04231770833333 3.13908872901679  4.775390625 3.13908872901679  C 4.49544270833333 3.13908872901679  4.248046875 3.22571942446043  4.033203125 3.39898081534772  C 3.818359375 3.57224220623501  3.7109375 3.79476418864908  3.7109375 4.06654676258993  C 3.7109375 4.33153477218225  3.818359375 4.55065947242206  4.033203125 4.72392086330935  C 4.248046875 4.89718225419664  4.49544270833333 4.98381294964029  4.775390625 4.98381294964029  C 5.04231770833333 4.98381294964029  5.25716145833333 4.9005795363709  5.419921875 4.73411270983213  Z M 12.6708984375 9.75359712230216  C 12.8369140625 9.60411670663469  12.919921875 9.4308553157474  12.919921875 9.23381294964029  C 12.919921875 9.04356514788169  12.8369140625 8.87370103916867  12.6708984375 8.7242206235012  C 12.5048828125 8.57474020783373  12.2916666666667 8.5  12.03125 8.5  C 11.85546875 8.5  11.6943359375 8.57643884892087  11.5478515625 8.72931654676259  C 11.4013671875 8.88219424460432  11.328125 9.05035971223022  11.328125 9.23381294964029  C 11.328125 9.42406075139888  11.4013671875 9.59562350119904  11.5478515625 9.74850119904077  C 11.6943359375 9.90137889688249  11.85546875 9.97781774580336  12.03125 9.97781774580336  C 12.2916666666667 9.97781774580336  12.5048828125 9.90307753796962  12.6708984375 9.75359712230216  Z M 10.3759765625 4.73411270983213  C 10.5354817708333 4.56764588329336  10.615234375 4.3451239008793  10.615234375 4.06654676258993  C 10.615234375 3.78796962430056  10.5354817708333 3.56374900079936  10.3759765625 3.39388489208633  C 10.2164713541667 3.2240207833733  10.0032552083333 3.13908872901679  9.736328125 3.13908872901679  C 9.45638020833334 3.13908872901679  9.208984375 3.22571942446043  8.994140625 3.39898081534772  C 8.779296875 3.57224220623501  8.671875 3.79476418864908  8.671875 4.06654676258993  C 8.671875 4.33153477218225  8.779296875 4.55065947242206  8.994140625 4.72392086330935  C 9.208984375 4.89718225419664  9.45638020833334 4.98381294964029  9.736328125 4.98381294964029  C 10.0032552083333 4.98381294964029  10.2164713541667 4.9005795363709  10.3759765625 4.73411270983213  Z M 16.5625 9.75359712230216  C 16.7317708333333 9.60411670663469  16.81640625 9.4308553157474  16.81640625 9.23381294964029  C 16.81640625 9.04356514788169  16.7317708333333 8.87370103916867  16.5625 8.7242206235012  C 16.3932291666667 8.57474020783373  16.181640625 8.5  15.927734375 8.5  C 15.751953125 8.5  15.5908203125 8.57643884892087  15.4443359375 8.72931654676259  C 15.2978515625 8.88219424460432  15.224609375 9.05035971223022  15.224609375 9.23381294964029  C 15.224609375 9.42406075139888  15.2978515625 9.59562350119904  15.4443359375 9.74850119904077  C 15.5908203125 9.90137889688249  15.751953125 9.97781774580336  15.927734375 9.97781774580336  C 16.181640625 9.97781774580336  16.3932291666667 9.90307753796962  16.5625 9.75359712230216  Z M 12.8857421875 2.53267386091127  C 13.5725911458333 3.32424060751399  14.0169270833333 4.20923261390887  14.21875 5.18764988009592  C 14.0169270833333 5.16047162270184  13.7890625 5.1468824940048  13.53515625 5.1468824940048  C 12.4348958333333 5.1468824940048  11.4225260416667 5.40847322142286  10.498046875 5.93165467625899  C 9.57356770833334 6.45483613109512  8.84602864583334 7.16316946442846  8.3154296875 8.05665467625899  C 7.78483072916667 8.95013988808953  7.51953125 9.92685851318945  7.51953125 10.9868105515588  C 7.51953125 11.5167865707434  7.59440104166667 12.033173461231  7.744140625 12.5359712230216  C 7.51627604166667 12.5563549160671  7.294921875 12.5665467625899  7.080078125 12.5665467625899  C 6.91080729166667 12.5665467625899  6.748046875 12.5614508393285  6.591796875 12.5512589928058  C 6.435546875 12.541067146283  6.25651041666667 12.5189848121503  6.0546875 12.4850119904077  C 5.85286458333333 12.4510391686651  5.7080078125 12.4272581934452  5.6201171875 12.4136690647482  C 5.5322265625 12.4000799360512  5.35481770833333 12.3644084732214  5.087890625 12.306654676259  C 4.82096354166667 12.2489008792966  4.658203125 12.2132294164668  4.599609375 12.1996402877698  L 2.12890625 13.4940047961631  L 2.83203125 11.2721822541966  C 0.944010416666667 9.89288569144684  0 8.22821742605915  0 6.27817745803357  C 0 5.12989608313349  0.3173828125 4.07334132693845  0.9521484375 3.10851318944844  C 1.5869140625 2.14368505195843  2.4462890625 1.38439248601119  3.5302734375 0.830635491606715  C 4.6142578125 0.276878497202237  5.79752604166667 0  7.080078125 0  C 8.22591145833333 0  9.30826822916667 0.2242206235012  10.3271484375 0.672661870503597  C 11.3460286458333 1.121103117506  12.1988932291667 1.74110711430855  12.8857421875 2.53267386091127  Z M 19.1650390625 8.2197242206235  C 19.7216796875 9.04526378896882  20 9.94044764188649  20 10.9052757793765  C 20 11.7002398081535  19.7770182291667 12.4595323741007  19.3310546875 13.1831534772182  C 18.8850911458333 13.9067745803357  18.28125 14.5641486810552  17.51953125 15.1552757793765  L 18.056640625 17  L 16.11328125 15.8890887290168  C 15.13671875 16.1404876099121  14.4270833333333 16.2661870503597  13.984375 16.2661870503597  C 12.8841145833333 16.2661870503597  11.8717447916667 16.0266786570743  10.947265625 15.5476618705036  C 10.0227864583333 15.0686450839329  9.29524739583333 14.4180655475619  8.7646484375 13.5959232613909  C 8.23404947916667 12.7737809752198  7.96875 11.876898481215  7.96875 10.9052757793765  C 7.96875 9.93365307753797  8.23404947916667 9.03677058353317  8.7646484375 8.21462829736211  C 9.29524739583333 7.39248601119105  10.0227864583333 6.74190647482014  10.947265625 6.2628896882494  C 11.8717447916667 5.78387290167866  12.8841145833333 5.54436450839328  13.984375 5.54436450839328  C 15.0325520833333 5.54436450839328  16.0188802083333 5.78387290167866  16.943359375 6.2628896882494  C 17.8678385416667 6.74190647482014  18.6083984375 7.39418465227818  19.1650390625 8.2197242206235  Z " fill-rule="nonzero" fill="#000000" stroke="none" transform="matrix(1 0 0 1 1198 3908 )" />
  </g>
</svg>