<?xml version="1.0" encoding="utf-8"?>
<svg version="1.1" xmlns:xlink="http://www.w3.org/1999/xlink" width="22px" height="22px" xmlns="http://www.w3.org/2000/svg">
  <g transform="matrix(1 0 0 1 -1395 -3772 )">
    <path d="M 14.830125 9.955125  L 11 13.78525  L 7.169875 9.95566665820313  L 7.93579165820312 9.18920834179688  L 11 12.2534166582031  L 14.0642083417969 9.18920834179687  L 14.830125 9.955125  Z M 14.8306666582031 9.95458334179687  L 14.830125 9.95566665820313  L 14.0642083417969 9.18920834179687  C 14.8768176860062 8.37655712041847  15.3333333417969 7.27439067087904  15.3333333417969 6.12515790337539  C 15.3333333417969 3.73192398276766  13.3932339206077 1.79182456157851  11 1.79182456157851  C 8.60676607939227 1.79182456157851  6.66666665820312 3.73192398276766  6.66666665820312 6.12515790337539  C 6.66666665820312 7.27439067087904  7.12318231399381 8.37655712041847  7.93579165820312 9.18920834179688  L 7.17041665820313 9.95458334179687  C 5.05520831640625 7.839375  5.05520831640625 4.40954168359375  7.17041665820313 2.29433334179687  C 9.285625 0.179124999999999  12.7154583164062 0.179124999999999  14.8306666582031 2.29433334179687  C 16.945875 4.40954168359375  16.945875 7.839375  14.8306666582031 9.95458334179687  Z M 10.9999999677142 7.20833334179687  C 10.4016914840565 7.20833334179687  9.91666662591728 6.72330848365764  9.91666662591728 6.125  C 9.91666662591728 5.52669151634236  10.4016914840565 5.04166665820313  10.9999999677142 5.04166665820313  C 11.5983084513718 5.04166665820313  12.083333309511 5.52669151634236  12.083333309511 6.125  C 12.083333309511 6.72330848365764  11.5983084513718 7.20833334179687  10.9999999677142 7.20833334179687  Z M 7.592375 16.4838333417969  L 7.59291665820312 16.4832916582031  C 7.48371977509056 16.3808934575658  7.42176840995552 16.2378703760276  7.42176840995552 16.0881728450684  C 7.42176840995552 15.789018610251  7.66428083334125 15.5465061868653  7.96343506815864 15.5465061868653  C 8.11299938172441 15.5465061868653  8.25590742552154 15.6083476970406  8.35829165820313 15.717375  L 11.167375 18.5259166582031  L 19.776625 9.91666665820313  L 17.5 9.91666665820313  L 17.5 8.83333334179687  L 20.2050833417969 8.83333334179687  C 20.2067094167414 8.83332845542289  20.2083354981098 8.83332601223175  20.2099615803961 8.83332601223175  C 21.1052607555149 8.83332601223175  21.8315449933466 9.5581609527812  21.8333333417969 10.4534583417969  L 21.8333333417969 20.21375  C 21.8303471788432 21.1097312048493  21.1026940698524 21.8342343041674  20.2067083417969 21.8333333417969  L 1.79329165820312 21.8333333417969  C 1.79202702343612 21.8333362983078  1.79076238564464 21.8333377765649  1.78949774742171 21.8333377765649  C 0.894287400999732 21.8333377765649  0.168158225750874 21.1084174456197  0.166666658203125 20.2132083417969  L 0.166666658203125 10.4529166582031  C 0.166954503942765 9.55834995140805  0.892224821226665 8.83331296762729  1.78679157433197 8.83331296762729  C 1.78949994839453 8.83331296762729  1.7922083182002 8.8333197590385  1.79491665820313 8.83333334179687  L 4.5 8.83333334179687  L 4.5 9.91666665820313  L 1.79491665820313 9.91666665820313  C 1.79220851761817 9.91662566246023  1.78950010554111 9.91660516370815  1.78679165467783 9.91660516370815  C 1.49032980801586 9.91660516370815  1.24999999647471 10.1569349752493  1.24999999647471 10.4533968219113  L 1.25 18.1267083417969  L 6.32920834179687 13.0475  C 6.43012100071201 12.9469739175982  6.56675612252747 12.8905313369088  6.70919508479686 12.8905313369088  C 6.85322339276059 12.8905313369088  6.99124739369146 12.9482369110159  7.09241665820313 13.05075  C 7.30366665820313 13.262  7.30041665820313 13.6086666582031  7.095125 13.8134166582031  L 1.31283334179688 19.59625  C 1.29330435810308 19.615885221504  1.27229832100068 19.6339938689098  1.25 19.6504166582031  L 1.25 20.21375  C 1.25 20.5100416582031  1.492125 20.7505416582031  1.79329165820312 20.7505416582031  L 11.8590833417969 20.7505416582031  L 7.592375 16.4838333417969  Z M 20.20725 20.75  L 20.2061666582031 20.75  C 20.5042715877045 20.7512044904878  20.7473194670493 20.5113036529533  20.75 20.2132083417969  L 20.75 10.4680833417969  C 20.7345397122674 10.4883505523219  20.7177086112929 10.5075343850134  20.699625 10.5255  L 11.9332916582031 19.292375  L 13.309125 20.6682083417969  C 13.3345833417969 20.6936666835938  13.3573333417969 20.7212916835938  13.3768333417969 20.75  L 20.20725 20.75  Z " fill-rule="nonzero" fill="#ffffff" stroke="none" transform="matrix(1 0 0 1 1395 3772 )" />
  </g>
</svg>