<?xml version="1.0" standalone="no"?><!DOCTYPE svg PUBLIC "-//W3C//DTD SVG 1.1//EN" "http://www.w3.org/Graphics/SVG/1.1/DTD/svg11.dtd"><svg t="1538982611472" class="icon" style="" viewBox="0 0 1024 1024" version="1.1" xmlns="http://www.w3.org/2000/svg" p-id="1113" xmlns:xlink="http://www.w3.org/1999/xlink" width="32" height="32"><defs><style type="text/css"></style></defs><path d="M512 477.867a179.2 179.2 0 1 0-179.2-179.2 179.2 179.2 0 0 0 179.2 179.2zM368.64 500.48a247.467 247.467 0 1 1 286.293 0A460.8 460.8 0 0 1 972.8 938.667a34.133 34.133 0 0 1-68.267 0 392.533 392.533 0 0 0-785.066 0 34.133 34.133 0 1 1-68.267 0A460.8 460.8 0 0 1 368.64 500.48z" p-id="1114"></path></svg>