<?xml version="1.0" standalone="no"?><!DOCTYPE svg PUBLIC "-//W3C//DTD SVG 1.1//EN" "http://www.w3.org/Graphics/SVG/1.1/DTD/svg11.dtd"><svg t="1538986540976" class="icon" style="" viewBox="0 0 1024 1024" version="1.1" xmlns="http://www.w3.org/2000/svg" p-id="1988" xmlns:xlink="http://www.w3.org/1999/xlink" width="32" height="32"><defs><style type="text/css"></style></defs><path d="M768 519.253a64 64 0 1 1 64-64 64 64 0 0 1-64 64z m-256 0a64 64 0 1 1 64-64 64 64 0 0 1-64 64z m-256 0a64 64 0 1 1 64-64 64 64 0 0 1-64 64z m238.933 256A34.133 34.133 0 0 1 512 770.56h117.333a317.867 317.867 0 1 0 0-635.733H394.667A317.867 317.867 0 0 0 76.8 453.12a317.44 317.44 0 0 0 264.533 318.293 34.133 34.133 0 0 1 28.16 42.667l-10.24 39.253z m-170.666 176.64a34.133 34.133 0 0 1-49.92-37.973l20.906-82.773a389.12 389.12 0 0 1 99.414-764.16h234.666a384 384 0 1 1 0 772.266H520.96z" p-id="1989"></path></svg>